# AST/ASF file generated using VICON BodyLanguage
# -----------------------------------------------
:version 1.10
:name VICON
:units
  mass 1.0
  length 0.45
  angle deg
:documentation
   .ast/.asf automatically generated from VICON data using
   VICON BodyBuilder and BodyLanguage model FoxedUp or BRILLIANT.MOD
:root
   order TX TY TZ RX RY RZ
   axis XYZ
   position 0 0 0  
   orientation 0 -0 0 
:bonedata
  begin
     id 1 
     name lhipjoint
     direction 0.515797 -0.759363 0.396637 
     length 2.47888 
     axis 0 -0 0  XYZ
  end
  begin
     id 2 
     name lfemur
     direction 0.34202 -0.939693 0  
     length 6.81885  
     axis 0 -0 20  XYZ
    dof rx ry rz
    limits (-160.0 20.0)
           (-70.0 70.0)
           (-60.0 70.0)
  end
  begin
     id 3 
     name ltibia
     direction 0.342037 -0.939687 0   
     length 7.89258   
     axis 0 -0 20   XYZ
    dof rx
    limits (-10.0 170.0)
  end
  begin
     id 4 
     name lfoot
     direction 0.173497 -0.476678 0.861787   
     length 2.51543   
     axis -90 -1.13533e-015 20   XYZ
    dof rx rz
    limits (-45.0 90.0)
           (-70.0 20.0)
  end
  begin
     id 5 
     name ltoes
     direction 1.53564e-011 -4.21897e-011 1   
     length 1.21388   
     axis -90 -1.13533e-015 20   XYZ
    dof rx
    limits (-90.0 20.0)
  end
  begin
     id 6 
     name rhipjoint
     direction -0.489454 -0.772941 0.403729   
     length 2.43534  
     axis 0 -0 0  XYZ 
  end
  begin
     id 7 
     name rfemur
     direction -0.34202 -0.939693 0   
     length 7.10357   
     axis 0 -0 -20   XYZ
    dof rx ry rz
    limits (-160.0 20.0)
           (-70.0 70.0)
           (-70.0 60.0)
  end
  begin
     id 8 
     name rtibia
     direction -0.34202 -0.939693 0   
     length 9.16127   
     axis 0 -0 -20   XYZ
    dof rx
    limits (-10.0 170.0)
 end
 begin
     id 9 
     name rfoot
     direction -0.270974 -0.748671 0.605033   
     length 1.74894  
     axis -90 1.13533e-015 -20   XYZ
    dof rx rz
    limits (-45.0 90.0)
           (-20.0 70.0)
  end
  begin
     id 10 
     name rtoes
     direction -1.53557e-011 -4.21759e-011 1   
     length 0.787585   
     axis -90 1.13533e-015 -20   XYZ
    dof rx
    limits (-90.0 20.0)
  end
  begin
     id 11 
     name lowerback
     direction -0.0140249 0.999561 0.0260968   
     length 2.16963   
     axis 0 -0 0   XYZ
    dof rx ry rz
    limits (-20.0 45.0)
           (-30.0 30.0)
           (-30.0 30.0)
  end
  begin
     id 12 
     name upperback
     direction 0.00860018 0.999959 -0.002711   
     length 2.1726   
     axis 0 -0 0   XYZ
    dof rx ry rz
    limits (-20.0 45.0)
           (-30.0 30.0)
           (-30.0 30.0)
  end
  begin
     id 13 
     name thorax
     direction 0.015211 0.999782 -0.0143191   
     length 2.17061   
     axis 0 -0 0   XYZ
    dof rx ry rz
    limits (-20.0 45.0)
           (-30.0 30.0)
           (-30.0 30.0)
  end
  begin
     id 14 
     name lowerneck
     direction -0.0140143 0.999447 0.030145   
     length 2.26749   
     axis 0 -0 0   XYZ
    dof rx ry rz
    limits (-20.0 45.0)
           (-30.0 30.0)
           (-30.0 30.0)
  end
  begin
     id 15 
     name upperneck
     direction 0.118062 0.961438 -0.248392   
     length 2.22728   
     axis 0 -0 0   XYZ
    dof rx ry rz
    limits (-20.0 45.0)
           (-30.0 30.0)
           (-30.0 30.0)
  end
  begin
     id 16
     name head
     direction 0.0431885 0.9954 -0.085514  
     length 2.28786  
     axis 0 -0 0   XYZ
    dof rx ry rz
    limits (-20.0 45.0)
           (-30.0 30.0)
           (-30.0 30.0)
  end
  begin
     id 17 
     name lclavicle
     direction 0.912126 0.409548 0.0172323  
     length 4.31571  
     axis 0 -0 0   XYZ
    dof ry rz
    limits (-20.0 10.0)
           (0.0 20.0)
  end
  begin
     id 18 
     name lhumerus
     direction 1 -4.48977e-011 1.93091e-027   
     length 5.13658   
     axis 180 -30 -90   XYZ
    dof rx ry rz
    limits (-60.0 90.0)
           (-90.0 90.0)
           (-90.0 90.0)
  end
  begin
     id 19
     name lradius
     direction 1 -4.48916e-011 6.84018e-027   
     length 3.22473   
     axis 180 -30 -90   XYZ
    dof rx
    limits (-10.0 170.0)
  end
  begin
     id 20
     name lwrist
     direction 1 -4.48987e-011 7.01981e-027   
     length 1.61236   
     axis -4.37994e-015 90 90   XYZ
    dof ry
    limits (-180.0 0.0)
 end
  begin
     id 21 
     name lhand
     direction 1 -4.49037e-011 1.40335e-026   
     length 0.936406   
     axis -8.96029e-015 90 90   XYZ
    dof rx rz
    limits (-90.0 90.0)
           (-45.0 45.0)
  end
  begin
     id 22 
     name lfingers
     direction 1 -4.48886e-011 2.8104e-026   
     length 0.754955   
     axis -1.79203e-014 90 90   XYZ
    dof rx
    limits (0.0 90.0)
  end
  begin
     id 23
     name lthumb
     direction 0.707107 -6.34937e-011 0.707107   
     length 1.08397   
     axis -90 45 -4.48555e-014   XYZ
    dof rx rz
    limits (-45.0 45.0)
           (-45.0 45.0)
  end
  begin
     id 24 
     name rclavicle
     direction -0.947962 0.317997 0.0156638   
     length 4.86918  
     axis 0 -0 0   XYZ 
    dof ry rz
    limits (-10.0 20.0)
           (-20.0 0.0)
  end
  begin
     id 25 
     name rhumerus
     direction -1 -4.48951e-011 2.80534e-018  
     length 5.60911   
     axis 180 30 90   XYZ
    dof rx ry rz
    limits (-90.0 60.0)
           (-90.0 90.0)
           (-90.0 90.0)
  end
  begin
     id 26 
     name rradius
     direction -1 -4.4898e-011 2.11315e-027   
     length 3.38704   
     axis 180 30 90   XYZ
    dof rx
    limits (-10.0 170.0)
  end
  begin
     id 27 
     name rwrist
     direction -1 -4.48933e-011 7.02314e-027   
     length 1.69352   
     axis -4.37994e-015 -90 -90   XYZ
    dof ry
    limits (-180.0 0.0)
  end
  begin
     id 28
     name rhand
     direction -1 -4.48937e-011 1.40458e-026   
     length 0.755878   
     axis -8.96029e-015 -90 -90   XYZ
    dof rx rz
    limits (-90.0 90.0)
           (-45.0 45.0)
  end
  begin
     id 29
     name rfingers
     direction -1 -4.4901e-011 2.80737e-026   
     length 0.609409   
     axis -1.79203e-014 -90 -90   XYZ
    dof rx
    limits (0.0 90.0)
  end
  begin
     id 30
     name rthumb
     direction -0.707107 -6.34968e-011 0.707107   
     length 0.874992   
     axis -90 -45 4.48555e-014   XYZ
    dof rx rz
    limits (-45.0 45.0)
           (-45.0 45.0)
  end
:hierarchy
  begin
    root lhipjoint rhipjoint lowerback
    lhipjoint lfemur
    lfemur ltibia
    ltibia lfoot
    lfoot ltoes
    rhipjoint rfemur
    rfemur rtibia
    rtibia rfoot
    rfoot rtoes
    lowerback upperback
    upperback thorax
    thorax lowerneck lclavicle rclavicle
    lowerneck upperneck
    upperneck head
    lclavicle lhumerus
    lhumerus lradius
    lradius lwrist
    lwrist lhand lthumb
    lhand lfingers
    rclavicle rhumerus
    rhumerus rradius
    rradius rwrist
    rwrist rhand rthumb
    rhand rfingers
  end

#!OML:ASF C:\ViconDB\ViconDB\414\Spring2016\041811\Spring2016.ASF
:FULLY-SPECIFIED
:DEGREES
31
root 6.68202 18.3078 -6.33154 -178.371 -9.76662 179.083
lowerback -4.22777 0.841778 -3.52605
upperback 1.46311 1.2964 0.761508
thorax 3.78842 0.549459 2.86164
lowerneck -15.1747 3.30507 -3.03512
upperneck 26.646 2.55604 6.57397
head 10.9501 1.23707 3.1741
rclavicle 2.596e-014 -6.75868e-015
rhumerus -44.8693 -22.594 -81.0638
rradius 30.4453
rwrist 39.4861
rhand -31.6648 -15.7323
rfingers 7.12502
rthumb -4.9251 -45.6551
lclavicle 2.596e-014 -6.75868e-015
lhumerus -37.825 -4.63685 93.8479
lradius 25.028
lwrist -30.6542
lhand -28.5307 15.1732
lfingers 7.12502
lthumb -1.89842 45.1445
rfemur 1.39847 -13.2191 18.7896
rtibia 12.1578
rfoot -9.52818 -0.525029
rtoes -12.4144
lfemur -7.53988 -11.4842 -18.0014
ltibia 22.2284
lfoot -19.7318 8.31406
ltoes -10.0302
32
root 6.68262 18.3079 -6.33264 -178.368 -9.76876 179.102
lowerback -4.20074 0.842516 -3.52549
upperback 1.46206 1.29625 0.762817
thorax 3.77204 0.549728 2.86206
lowerneck -15.1677 3.28364 -3.07266
upperneck 26.6461 2.53987 6.55859
head 10.9492 1.22376 3.17258
rclavicle 5.68089e-014 8.34896e-015
rhumerus -44.829 -22.5409 -81.139
rradius 30.4816
rwrist 39.5566
rhand -31.7435 -15.6893
rfingers 7.12502
rthumb -5.00103 -45.6102
lclavicle 5.68089e-014 8.34896e-015
lhumerus -37.8293 -4.60671 93.8316
lradius 25.046
lwrist -30.6066
lhand -28.5122 15.125
lfingers 7.12502
lthumb -1.88057 45.0964
rfemur 1.39564 -13.2538 18.811
rtibia 12.1535
rfoot -9.53155 -0.542428
rtoes -12.4724
lfemur -7.54208 -11.4843 -17.973
ltibia 22.2321
lfoot -19.7364 8.30946
ltoes -10.061
33
root 6.68244 18.3077 -6.33511 -178.346 -9.75605 179.086
lowerback -4.18898 0.853947 -3.52285
upperback 1.4446 1.31178 0.735442
thorax 3.74676 0.558692 2.83279
lowerneck -15.1351 3.31758 -3.02051
upperneck 26.6619 2.55389 6.60399
head 10.948 1.23859 3.18142
rclavicle 8.67198e-015 -2.78299e-015
rhumerus -44.8242 -22.455 -81.2233
rradius 30.504
rwrist 39.786
rhand -31.759 -15.5609
rfingers 7.12502
rthumb -5.01602 -45.4815
lclavicle 8.67198e-015 -2.78299e-015
lhumerus -37.8554 -4.65763 93.8175
lradius 25.0323
lwrist -30.6802
lhand -28.4697 15.1549
lfingers 7.12502
lthumb -1.83955 45.1267
rfemur 1.38921 -13.2782 18.7893
rtibia 12.1433
rfoot -9.57038 -0.576311
rtoes -12.4498
lfemur -7.55605 -11.5055 -17.9876
ltibia 22.242
lfoot -19.8199 8.32738
ltoes -9.89102
34
root 6.68297 18.3083 -6.33692 -178.33 -9.73779 179.071
lowerback -4.17405 0.865305 -3.54334
upperback 1.43468 1.32762 0.730779
thorax 3.72654 0.566745 2.84012
lowerneck -15.141 3.31742 -3.07696
upperneck 26.6927 2.54682 6.66539
head 10.9587 1.23557 3.21351
rclavicle 1.22004e-014 -1.88845e-015
rhumerus -44.8372 -22.5229 -81.1943
rradius 30.5354
rwrist 40.1153
rhand -31.8438 -15.523
rfingers 7.12502
rthumb -5.09787 -45.4417
lclavicle 1.22004e-014 -1.88845e-015
lhumerus -37.8829 -4.61527 93.8052
lradius 24.9964
lwrist -30.9024
lhand -28.5561 15.1405
lfingers 7.12502
lthumb -1.92303 45.1115
rfemur 1.38669 -13.2693 18.7727
rtibia 12.1293
rfoot -9.57224 -0.582686
rtoes -12.4717
lfemur -7.56693 -11.4884 -18.0021
ltibia 22.2491
lfoot -19.7893 8.32306
ltoes -9.99394
35
root 6.68397 18.3089 -6.33841 -178.314 -9.72301 179.102
lowerback -4.16497 0.866055 -3.5261
upperback 1.42378 1.32719 0.731649
thorax 3.71045 0.56746 2.83094
lowerneck -15.1407 3.32804 -3.03505
upperneck 26.7241 2.54629 6.65883
head 10.9715 1.23692 3.20471
rclavicle 3.64397e-014 -2.5842e-015
rhumerus -44.8092 -22.4142 -81.2963
rradius 30.5976
rwrist 40.1876
rhand -31.9481 -15.5122
rfingers 7.12502
rthumb -5.19862 -45.4285
lclavicle 3.64397e-014 -2.5842e-015
lhumerus -37.9052 -4.61705 93.798
lradius 25.023
lwrist -30.9561
lhand -28.5503 15.2359
lfingers 7.12502
lthumb -1.91741 45.2071
rfemur 1.36175 -13.2972 18.8117
rtibia 12.1324
rfoot -9.61209 -0.617828
rtoes -12.4554
lfemur -7.58378 -11.5084 -17.9617
ltibia 22.2489
lfoot -19.839 8.35031
ltoes -9.87738
36
root 6.6848 18.3094 -6.34011 -178.29 -9.71036 179.092
lowerback -4.17164 0.877189 -3.54499
upperback 1.41743 1.34364 0.722953
thorax 3.70622 0.575512 2.83376
lowerneck -15.1534 3.30086 -3.05239
upperneck 26.7595 2.49637 6.69194
head 10.9894 1.21455 3.21454
rclavicle -1.76173e-014 5.96354e-015
rhumerus -44.7627 -22.3991 -81.4021
rradius 30.6054
rwrist 40.3464
rhand -32.0923 -15.5299
rfingers 7.12502
rthumb -5.33789 -45.4427
lclavicle -1.76173e-014 5.96354e-015
lhumerus -37.9327 -4.74164 93.8876
lradius 25.0268
lwrist -30.6433
lhand -28.713 15.2518
lfingers 7.12502
lthumb -2.07455 45.2214
rfemur 1.33428 -13.2721 18.812
rtibia 12.1401
rfoot -9.61916 -0.606201
rtoes -12.4341
lfemur -7.59653 -11.5549 -17.9685
ltibia 22.2445
lfoot -19.8347 8.40586
ltoes -9.93693
